<?xml version="1.0" standalone="no"?>
<!DOCTYPE svg PUBLIC "-//W3C//DTD SVG 20010904//EN"
 "http://www.w3.org/TR/2001/REC-SVG-20010904/DTD/svg10.dtd">
<svg version="1.0" xmlns="http://www.w3.org/2000/svg"
 width="500.000000pt" height="500.000000pt" viewBox="0 0 500.000000 500.000000"
 preserveAspectRatio="xMidYMid meet">
<metadata>
Created by potrace 1.14, written by Peter Selinger 2001-2017
</metadata>
<g transform="translate(0.000000,500.000000) scale(0.100000,-0.100000)"
fill="#000000" stroke="none">
<path d="M2057 4730 c-218 -39 -442 -178 -578 -360 -27 -36 -49 -71 -49 -77 0
-7 -5 -13 -10 -13 -6 0 -9 -3 -8 -7 0 -5 -2 -15 -5 -23 -16 -39 -39 -136 -44
-183 -13 -126 -4 -333 23 -501 l6 -40 -25 17 c-20 13 -32 14 -51 7 -38 -14
-59 -133 -41 -235 3 -22 8 -49 10 -60 21 -134 75 -250 122 -261 17 -5 27 -18
37 -53 13 -44 53 -152 79 -216 18 -43 108 -219 116 -225 14 -11 123 -181 135
-212 39 -97 38 -83 10 -179 -27 -92 -53 -149 -75 -160 -13 -7 -47 -20 -59 -24
-36 -9 -185 -101 -225 -137 -10 -10 -52 -34 -92 -53 -77 -37 -87 -44 -147
-117 l-38 -48 -42 28 c-73 50 -116 65 -185 65 -64 0 -158 -9 -194 -19 -10 -3
-31 -7 -47 -9 -69 -9 -308 -87 -356 -116 -41 -25 -65 -62 -66 -102 0 -20 -8
-38 -21 -48 -19 -16 -19 -16 11 -27 23 -8 37 -24 53 -56 12 -26 26 -49 32 -53
22 -13 137 -12 177 2 22 8 43 14 45 14 16 0 223 72 241 83 19 12 25 -4 11 -26
-8 -12 -17 -32 -20 -46 -3 -14 -19 -39 -34 -55 -124 -135 -200 -231 -191 -240
3 -3 26 2 52 11 26 9 49 14 52 11 3 -2 -4 -21 -15 -41 -12 -20 -21 -38 -21
-41 -1 -9 -12 -40 -19 -55 -19 -36 -33 -124 -27 -165 11 -67 49 -98 178 -141
60 -20 112 -33 116 -30 3 4 7 28 8 54 1 26 2 51 3 55 0 5 14 -1 30 -12 16 -12
34 -21 40 -21 6 0 11 -4 11 -8 0 -14 67 -30 114 -27 25 1 65 14 90 28 l46 26
43 -22 c70 -36 114 -39 164 -13 28 14 34 14 81 -4 64 -24 127 -20 179 13 l38
24 35 -20 c40 -22 65 -29 99 -28 38 2 101 21 102 31 1 6 3 15 4 20 1 6 3 20 4
31 1 21 2 21 27 -4 14 -15 34 -29 44 -32 18 -6 19 -20 17 -215 -2 -115 1 -206
5 -202 4 4 35 89 69 187 34 99 66 185 71 192 10 12 21 11 82 -5 23 -7 48 -7
70 -1 36 10 83 46 79 60 -2 5 4 9 12 9 8 0 15 -4 15 -8 0 -17 67 -31 125 -26
175 14 338 -1 382 -36 17 -14 30 -17 42 -11 9 5 33 9 54 9 43 0 97 19 97 35 0
14 15 -2 15 -16 1 -7 7 -10 15 -8 8 3 33 3 55 2 22 -2 66 -4 98 -4 51 -1 61 2
77 23 10 14 16 28 14 32 -10 16 14 8 50 -17 20 -13 36 -22 36 -18 0 3 6 1 13
-5 12 -10 58 -22 104 -27 47 -5 55 -24 56 -139 2 -104 10 -133 23 -78 4 15 11
32 15 38 5 6 20 42 34 80 54 145 55 145 150 115 69 -22 106 -21 158 3 35 17
37 21 38 65 0 40 2 43 12 27 23 -36 69 -86 81 -86 25 0 39 -20 43 -61 9 -75
18 -78 47 -17 23 49 31 57 64 64 20 4 42 6 47 5 71 -19 149 -20 184 -4 31 15
150 129 239 229 52 58 53 60 49 111 -3 38 -10 58 -24 71 -18 15 -21 29 -20 83
1 57 -3 70 -31 112 -69 99 -197 132 -288 74 l-41 -26 -22 29 c-11 16 -21 33
-21 39 0 5 -4 11 -8 13 -4 2 -39 49 -76 106 -38 56 -72 102 -77 102 -5 0 -9 6
-9 13 0 26 -159 191 -223 230 -29 18 -54 32 -57 33 -3 0 -27 11 -55 23 -70 33
-102 46 -160 66 -27 9 -59 21 -70 25 -11 5 -51 21 -90 35 -81 31 -110 44 -223
96 -46 22 -85 39 -88 39 -2 0 -23 9 -47 19 -60 27 -131 52 -138 49 -9 -4 -88
82 -105 114 -20 38 -79 119 -143 196 -51 62 -55 69 -57 126 -1 34 -3 63 -4 66
-1 3 -2 8 -2 11 1 4 3 31 6 60 6 67 19 132 46 229 26 96 31 112 34 130 2 10
15 15 37 15 19 1 42 5 52 9 28 13 78 133 83 197 2 31 7 74 12 96 13 57 5 148
-18 195 -22 46 -71 46 -114 -1 -26 -29 -36 -26 -31 7 14 82 20 256 11 352 -12
133 -16 173 -21 193 -2 12 -7 38 -10 57 -13 88 -27 130 -64 185 -33 49 -131
142 -190 182 -31 21 -58 41 -61 44 -12 15 -170 88 -234 108 -78 25 -205 35
-279 21z m-1400 -3692 c-3 -8 -6 -5 -6 6 -1 11 2 17 5 13 3 -3 4 -12 1 -19z"/>
</g>
</svg>
